<svg id="Capa_1" data-name="Capa 1" xmlns="http://www.w3.org/2000/svg" viewBox="0 0 420.85 426.37"><defs><style>.cls-1{fill:#8cc1cd;}.cls-2{fill:#085484;}.cls-3{fill:#ffb352;}.cls-4{fill:#ba201b;}</style></defs><path class="cls-1" d="M193.66,186.66H146.87v-4.74l.35-.34c6-5.71,9-14.81,9-27.05V81.61l-29,67.26-8.75-20.31L98.39,81.65v72.88c0,12.24,3,21.34,9,27.05l.35.34v4.74H61v-4.74l.34-.33c5.85-5.71,8.81-14.82,8.81-27.06V71.11c0-12.24-3-21.34-8.81-27.06L61,43.72V38.77H98l29.21,68.35,29.41-68.35h37v4.95l-.35.34c-6,5.71-9,14.81-9,27.05v83.42c0,12.24,3,21.34,9,27.05l.35.34Zm-44.51-2.28h42.24v-1.5c-6.22-6.17-9.36-15.7-9.36-28.35V71.11c0-12.64,3.14-22.18,9.36-28.35V41.05H158.12L127.2,112.9,96.5,41.05H63.23v1.72c6.08,6.17,9.16,15.7,9.16,28.34v83.42c0,12.64-3.08,22.18-9.16,28.34v1.51h42.24v-1.5c-6.21-6.17-9.36-15.7-9.36-28.35v-84l31.1,72.56,31.3-72.52v83.93c0,12.65-3.15,22.18-9.36,28.35Z"/><path class="cls-1" d="M305.16,204.38H218.22v-4.73l.34-.34c5.85-5.71,8.81-14.82,8.81-27.06V88.83c0-12.24-3-21.34-8.81-27.06l-.34-.33V56.49h37.43v.21h49.51V91.64h-5.33l-.23-.83c-1.17-4.15-4.37-8-9.51-11.32A30.69,30.69,0,0,0,273,74.37H255.65V121.6h9.68c12.24,0,21.27-3,26.84-8.8l.34-.35h4.95v36.18h-4.95l-.34-.35c-5.57-5.84-14.6-8.8-26.84-8.8h-9.68v47.23H273a30.69,30.69,0,0,0,17.06-5.12c5.14-3.36,8.34-7.17,9.51-11.31l.23-.83h5.33Zm-84.66-2.27h82.39V171.72h-1.36c-1.49,4.36-4.91,8.32-10.2,11.78A33,33,0,0,1,273,189H253.38V137.2h11.95c12.64,0,22.11,3.08,28.15,9.16h1.71V114.73h-1.71c-6,6.07-15.5,9.15-28.15,9.15H253.38V72.1H273a32.94,32.94,0,0,1,18.3,5.48C296.62,81,300,85,301.53,89.36h1.36V59H253.38v-.21H220.5v1.72c6.07,6.17,9.15,15.7,9.15,28.34v83.42c0,12.64-3.08,22.18-9.15,28.35Z"/><path class="cls-1" d="M210.26,350h-37l-54.94-114.5v82.37c0,12.24,3,21.34,9,27.06l.35.33V350H80.88v-4.73l.34-.34c5.85-5.71,8.81-14.81,8.81-27.06V234.45c0-12.24-3-21.35-8.81-27.06l-.34-.34v-4.94h39.51l52.44,109.5V234.45c0-12.24-3-21.34-9-27l-.36-.34v-4.95h46.8v4.95l-.36.34c-5.84,5.57-8.8,14.67-8.8,27v83.41c0,12.25,3,21.35,8.81,27.06l.35.34Zm-35.58-2.27H208v-1.51c-6.07-6.17-9.15-15.7-9.15-28.35V234.45c0-12.78,3.08-22.32,9.15-28.36v-1.71H165.74v1.71c6.21,6.18,9.36,15.71,9.36,28.36v87.17L119,204.38H83.16v1.72c6.07,6.17,9.15,15.71,9.15,28.35v83.41c0,12.65-3.08,22.18-9.15,28.35v1.51H125.4v-1.5c-6.22-6.17-9.36-15.71-9.36-28.36V225.49Z"/><path class="cls-1" d="M285.19,397.56a69.1,69.1,0,0,1-20-2.75,50,50,0,0,1-16.28-8.3,37.4,37.4,0,0,1-11.27-15,54.61,54.61,0,0,1-4-21.67V279.52c0-12.24-3-21.27-8.8-26.84l-.35-.34v-5h46.79v5l-.36.34c-6,5.57-9,14.6-9,26.83V356.9c0,7.4,2.18,13.09,6.48,16.94s10,5.85,16.72,5.85,12.37-2,16.71-5.85,6.49-9.54,6.49-16.94V279.52c0-12.24-3-21.27-8.8-26.84l-.35-.34v-5h46.79v5l-.36.34c-6,5.57-9,14.6-9,26.83v70.31a55.8,55.8,0,0,1-3.94,21.66,36.16,36.16,0,0,1-11.28,15,51.21,51.21,0,0,1-16.27,8.3A68.07,68.07,0,0,1,285.19,397.56ZM226.73,251.37c6.07,6,9.15,15.51,9.15,28.15v70.31a52.28,52.28,0,0,0,3.86,20.77,35.13,35.13,0,0,0,10.58,14.11,47.67,47.67,0,0,0,15.54,7.92,66.72,66.72,0,0,0,19.33,2.66,65.57,65.57,0,0,0,19.22-2.66A49.21,49.21,0,0,0,320,384.71a34,34,0,0,0,10.56-14.1,53.41,53.41,0,0,0,3.76-20.78V279.52c0-12.65,3.15-22.11,9.36-28.15v-1.71H301.41v1.71c6.07,6,9.15,15.51,9.15,28.15V356.9c0,8.07-2.43,14.34-7.24,18.64S292.42,382,285.09,382s-13.47-2.16-18.23-6.42-7.25-10.57-7.25-18.64V279.52c0-12.64,3.15-22.11,9.36-28.15v-1.71H226.73Z"/><path class="cls-1" d="M286.82,245h-5.91l5.64-26.35h24.74Zm-3.1-2.28h2.11L306.07,221H288.39Z"/><path class="cls-2" d="M239.09,389.19a135,135,0,0,0-69.67-29.37,138.15,138.15,0,0,0-37.83.66,135.36,135.36,0,0,0-36.36,11.23c-11.64,5.46-21.87,12.86-32.95,16.63a35.78,35.78,0,0,1-16.67,2.05,30.89,30.89,0,0,1-15.27-7.09,34.73,34.73,0,0,1-10.13-14.66,32.6,32.6,0,0,1-1.13-18.25,24.74,24.74,0,0,1,3.59-8.34,20.55,20.55,0,0,1,6.5-6,18.26,18.26,0,0,1,17.39-1,18.76,18.76,0,0,0-18.37-1.17,21.63,21.63,0,0,0-8,6,28.25,28.25,0,0,0-4.95,9.21,37.56,37.56,0,0,0-.07,21.35,40.44,40.44,0,0,0,11.16,18.11A35.86,35.86,0,0,0,44.71,398a39.39,39.39,0,0,0,10.16.34,52,52,0,0,0,9.75-2c12.57-4.06,23-11.64,34-16.55a133,133,0,0,1,34.31-11.08,145.72,145.72,0,0,1,36.09-2A153.71,153.71,0,0,1,239.09,389.19Z"/><path class="cls-2" d="M51.23,400.2a44.1,44.1,0,0,1-6.78-.54,37.33,37.33,0,0,1-19.24-9.89,42,42,0,0,1-11.63-18.88,39.53,39.53,0,0,1,.08-22.33,30.16,30.16,0,0,1,5.26-9.78,23.65,23.65,0,0,1,8.6-6.52,20.34,20.34,0,0,1,20,1.34l-1.72,2.93a16.47,16.47,0,0,0-15.76,1,18.93,18.93,0,0,0-6,5.54,23,23,0,0,0-3.32,7.75,30.75,30.75,0,0,0,1.06,17.28A33.24,33.24,0,0,0,31.44,382a29.3,29.3,0,0,0,14.42,6.71,34.07,34.07,0,0,0,15.85-2c6.52-2.22,12.71-5.7,19.26-9.39,4.34-2.44,8.83-5,13.54-7.18a137.39,137.39,0,0,1,36.82-11.37,139.87,139.87,0,0,1,38.31-.66,135.68,135.68,0,0,1,70.53,29.74l-2,2.77a152.76,152.76,0,0,0-69.32-22.34,144.35,144.35,0,0,0-35.65,2,131.06,131.06,0,0,0-33.88,10.93c-4.22,1.9-8.27,4.13-12.55,6.49C80,391.48,73,395.35,65.15,397.89A53.42,53.42,0,0,1,55.06,400,37.07,37.07,0,0,1,51.23,400.2Zm-31-57.52a27.57,27.57,0,0,0-3.35,6.92A36,36,0,0,0,16.86,370a38.48,38.48,0,0,0,10.69,17.33,33.89,33.89,0,0,0,17.45,9,38,38,0,0,0,9.7.33,50.15,50.15,0,0,0,9.41-2c7.54-2.44,14.41-6.23,21-9.89,4.35-2.39,8.45-4.66,12.75-6.59A134.86,134.86,0,0,1,132.6,367a148.22,148.22,0,0,1,36.5-2.07,154.69,154.69,0,0,1,44.92,10A134.88,134.88,0,0,0,96,373.25c-4.6,2.16-9,4.65-13.31,7.06-6.7,3.77-13,7.33-19.83,9.64a37.43,37.43,0,0,1-17.44,2.13,32.33,32.33,0,0,1-16.14-7.48A36.2,36.2,0,0,1,18.6,369.22,34.3,34.3,0,0,1,17.42,350,27.12,27.12,0,0,1,20.26,342.68Z"/><path class="cls-2" d="M34.79,405.34c-4.3-2.85-8.44-5.58-12.23-8.68a56.81,56.81,0,0,1-10-10.42,41.36,41.36,0,0,1-7.92-28.15C1.93,362.67,1.2,368.62,2,374.21A35,35,0,0,0,8.34,389.8a38.45,38.45,0,0,0,12,10.69A37.65,37.65,0,0,0,34.79,405.34Z"/><path class="cls-2" d="M41.66,407.84,34.6,407A39.26,39.26,0,0,1,19.53,402,40.4,40.4,0,0,1,7,390.81,36.51,36.51,0,0,1,.33,374.45c-.92-6.31.1-12.59,2.8-17.22L7,350.55l-.72,7.69a39.79,39.79,0,0,0,7.62,27,55.07,55.07,0,0,0,9.72,10.09c3.67,3,7.66,5.64,11.9,8.45ZM3.42,369.4A27.2,27.2,0,0,0,3.71,374a33,33,0,0,0,6,14.84A37.16,37.16,0,0,0,21.22,399a42,42,0,0,0,4.47,2.2c-1.43-1-2.84-2.11-4.21-3.22a58.41,58.41,0,0,1-10.32-10.74A44.24,44.24,0,0,1,3.42,369.4Z"/><path class="cls-3" d="M223.8,412.79c5.76-8.11,11.47-16.26,17.34-24.29.61-.83,2.17-1,3.57-.38l-20,25.2Z"/><path class="cls-3" d="M364,327.73l-29.39,7-1.08-.77c.78-1,1.45-2.7,2.36-2.84,9.3-1.49,18.65-2.72,28-4Z"/><path class="cls-3" d="M364.91,340.05l-29.65,2.67-.88-1.25c1-.75,2-2.12,3-2.14,9.15-.15,18.31-.06,27.47,0Z"/><path class="cls-3" d="M339.26,407.63c-7.14-6.86-14.31-13.69-21.37-20.63-.61-.6-.43-2-.61-3,1,.33,2.42.34,3,1,6.5,7.38,12.88,14.86,19.29,22.31Z"/><path class="cls-3" d="M333.4,275.13c-5.6,7.74-11.15,15.51-16.86,23.16-.59.79-2.14.86-3.25,1.27.25-1.07.15-2.42.79-3.16,6.24-7.26,12.6-14.41,18.93-21.6Z"/><path class="cls-3" d="M343.23,282.79c-6.84,7.14-13.66,14.31-20.59,21.36-.65.67-2,.62-3.05.91.34-1.13.32-2.66,1.07-3.33,7.36-6.5,14.84-12.85,22.28-19.25Z"/><path class="cls-3" d="M331.55,363l28.19,12.87-.23.57c-9.06-3.18-18.13-6.31-27.14-9.63-.88-.32-1.31-1.85-1.95-2.82Z"/><path class="cls-3" d="M347,398.67l-25.77-20.41c2.12.12,3.67-.28,4.38.31,7.46,6.34,14.78,12.83,22.14,19.28Z"/><path class="cls-3" d="M353.23,387.2c-8.18-4.3-16.39-8.56-24.51-13-.89-.48-1.27-1.9-1.9-2.89l1.26-1.11,25.51,16.34Z"/><path class="cls-3" d="M258.11,426l5.61-28.31,1.33-.47c.5,1,1.61,2.14,1.4,2.93-2.4,8.71-5,17.37-7.56,26.05Z"/><path class="cls-3" d="M304.22,392.79c.94.74,2.29,1.29,2.75,2.25a263.23,263.23,0,0,1,10.26,24.39l-14.25-25Z"/><path class="cls-3" d="M363.76,352.27l-29-1.53-.7-1.32c1-.61,2-1.85,2.91-1.74,9,1.14,17.93,2.5,26.89,3.79Z"/><path class="cls-3" d="M294,426.2l-6.42-27,.91-1c.91.62,2.5,1.13,2.62,1.88,1.39,8.63,2.57,17.29,3.8,26Z"/><path class="cls-3" d="M259.18,396.55l-11.92,26.07-.73-.26c3.06-8.69,6.08-17.4,9.29-26,.24-.62,1.89-.72,2.89-1.06Z"/><path class="cls-3" d="M327.82,413.42,310,390.5l.56-1.38c1.08.36,2.66.39,3.16,1.14,5,7.5,9.83,15.13,14.71,22.72Z"/><path class="cls-3" d="M333.73,355.25l27,7.92-.19.81c-5-1-9.93-1.79-14.84-2.89-4.37-1-9.15-1.21-13.13-3.14Z"/><path class="cls-3" d="M331.44,325.84c.64-.92,1.11-2.42,2-2.68A187.78,187.78,0,0,1,357.61,317l-24.72,9.78Z"/><path class="cls-3" d="M327.57,316.59l25-11.36.51,1c-7.76,4.28-15.51,8.56-23.32,12.73C329.57,319,328.64,317.74,327.57,316.59Z"/><path class="cls-3" d="M323.89,309.57l21.77-14,.56.74c-3.69,2.94-7.3,6-11.1,8.78-3.32,2.43-6.33,5.72-10.14,7.19Z"/><path class="cls-3" d="M236.54,415.22c3.7-7.13,7.35-14.29,11.18-21.36.53-1,1.95-1.43,3-2.13,0,1.18.37,2.64-.17,3.5-4.34,6.94-8.87,13.76-13.34,20.62Z"/><path class="cls-3" d="M282,426.37c-.75-8.2-1.54-16.39-2.18-24.6-.06-.78.85-1.64,1.31-2.46.63.64,1.82,1.27,1.83,1.92.12,8.37.08,16.74.07,25.11Z"/><path class="cls-3" d="M296.38,396.08c.93.56,2.45.93,2.69,1.7a147.38,147.38,0,0,1,5.62,23l-9.26-23.46C295.75,396.9,296.06,396.49,296.38,396.08Z"/><path class="cls-3" d="M270.24,424.5c.42-7.81.77-15.63,1.36-23.43.06-.84,1.54-1.57,2.36-2.35l1.06.9q-1.83,12.5-3.65,25Z"/><path class="cls-4" d="M90.34,44.56l30,70.1,30.16-70.1h35.16v3.33q-9.36,8.94-9.36,27.87v83.42q0,18.93,9.36,27.87v3.12H141.09v-3.12q9.36-8.94,9.36-27.87V80.75l-30.16,69.9-7.69-17.89-22.26-52v78.43q0,18.93,9.36,27.87v3.12H55.18v-3.12q9.15-8.94,9.15-27.87V75.76q0-18.93-9.15-27.87V44.56Z"/><path class="cls-4" d="M221.6,207.89h-9.16v-3.12q9.17-8.94,9.16-27.87V93.48q0-18.92-9.16-27.87V62.28H247.6v.21h49.51V95.15h-3.33q-1.87-6.66-10-12a31.68,31.68,0,0,0-17.69-5.31H247.6v49.51h10.82q18.91,0,27.66-9.15h3.33v33.9h-3.33Q277.35,143,258.42,143H247.6V192.5h18.51a31.75,31.75,0,0,0,17.69-5.3q8.1-5.31,10-12h3.33v32.66H221.6Z"/><path class="cls-4" d="M110.26,353.51H75.1v-3.12q9.16-8.94,9.16-27.88V239.1q0-18.93-9.16-27.88v-3.33h37.66l54.29,113.37V239.1q0-18.93-9.36-27.88v-3.33H202.2v3.33q-9.15,8.75-9.15,27.88v83.41q0,18.93,9.15,27.88v3.12H167.05L110.26,235.14v87.37q0,18.93,9.36,27.88v3.12Z"/><path class="cls-4" d="M218.68,253.17H263.2v3.33q-9.36,8.75-9.37,27.67v77.38q0,11.65,6.87,17.79t17.47,6.13q10.62,0,17.48-6.13t6.86-17.79V284.17q0-18.93-9.15-27.67v-3.33h44.52v3.33q-9.37,8.75-9.37,27.67v70.31a54.52,54.52,0,0,1-3.84,21.22,35,35,0,0,1-10.93,14.56,49.88,49.88,0,0,1-15.91,8.11,66.71,66.71,0,0,1-19.55,2.71,67.76,67.76,0,0,1-19.66-2.71,48.46,48.46,0,0,1-15.91-8.11,36.16,36.16,0,0,1-10.93-14.56,53.24,53.24,0,0,1-3.95-21.22V284.17q0-18.93-9.15-27.67Z"/><polygon class="cls-4" points="301.77 224.47 279.41 248.54 275.4 248.54 280.56 224.47 301.77 224.47"/><path class="cls-2" d="M188.48,18.08A104.47,104.47,0,0,1,245.83,0a104.85,104.85,0,0,1,45.31,9.26A96,96,0,0,1,305,16.8a81.06,81.06,0,0,1,22.67,22.35A101.16,101.16,0,0,1,340.76,68a167.35,167.35,0,0,1,5.55,30.7c.94,10.3,1.13,20.54,1.1,30.67s-.38,20.16-.48,30.08c-.05,5-.07,9.9,0,14.8a131.23,131.23,0,0,0,.83,14.17,52.65,52.65,0,0,0,3,12.68,32.65,32.65,0,0,0,2.74,5.41,25.66,25.66,0,0,0,3.58,4.5,30.57,30.57,0,0,0,21.53,8.61A26.61,26.61,0,0,0,399,210.12a32.76,32.76,0,0,0,8-22.27A25.09,25.09,0,0,0,404,176.39a17.55,17.55,0,0,0-8.16-7.88,11.46,11.46,0,0,0-1.32-.47c-.45-.13-.92-.23-1.31-.31a8.41,8.41,0,0,0-2.66,0,13.31,13.31,0,0,0-9.76,7.21,9.22,9.22,0,0,0-.5,6.83l-.28.15a10.22,10.22,0,0,1-2.08-7.74,15.84,15.84,0,0,1,3.43-7.83,17.82,17.82,0,0,1,7.18-5.38,15.79,15.79,0,0,1,4.75-1.12,16.41,16.41,0,0,1,2.43,0,20.37,20.37,0,0,1,2.35.28,22.31,22.31,0,0,1,8.67,3.59,28.83,28.83,0,0,1,6.68,6.25,33.71,33.71,0,0,1,4.58,7.8,37.44,37.44,0,0,1,2.44,8.71,42,42,0,0,1-1.21,17.78,44.63,44.63,0,0,1-8.2,15.86,41.36,41.36,0,0,1-14.31,11.4,42.1,42.1,0,0,1-17.9,4A46.8,46.8,0,0,1,361.14,232a45,45,0,0,1-15.11-10,40.78,40.78,0,0,1-5.68-7.3,47.28,47.28,0,0,1-3.94-8,67.43,67.43,0,0,1-3.82-16.49,141.19,141.19,0,0,1-.74-15.84c0-5.11.12-10.2.27-15.25l1.13-30c.3-9.9.38-19.72-.23-29.41a156.84,156.84,0,0,0-4.11-28.54,91.2,91.2,0,0,0-10.5-26.11A72.42,72.42,0,0,0,299.6,24.46,98.65,98.65,0,0,0,274.19,11.2a101.23,101.23,0,0,0-28.46-5.71A107.94,107.94,0,0,0,188.48,18.08Z"/><circle class="cls-3" cx="55.18" cy="225.88" r="8.34"/><circle class="cls-3" cx="55.18" cy="253.17" r="8.34"/><circle class="cls-3" cx="55.18" cy="280.7" r="8.34"/></svg>